<?xml version="1.0" standalone="no"?><svg xmlns="http://www.w3.org/2000/svg" viewBox="0 0 1440 320"><path fill="#0099ff" fill-opacity="1" d="M0,64L20,106.7C40,149,80,235,120,277.3C160,320,200,320,240,298.7C280,277,320,235,360,208C400,181,440,171,480,160C520,149,560,139,600,154.7C640,171,680,213,720,240C760,267,800,277,840,282.7C880,288,920,288,960,277.3C1000,267,1040,245,1080,208C1120,171,1160,117,1200,122.7C1240,128,1280,192,1320,229.3C1360,267,1400,277,1420,282.7L1440,288L1440,320L1420,320C1400,320,1360,320,1320,320C1280,320,1240,320,1200,320C1160,320,1120,320,1080,320C1040,320,1000,320,960,320C920,320,880,320,840,320C800,320,760,320,720,320C680,320,640,320,600,320C560,320,520,320,480,320C440,320,400,320,360,320C320,320,280,320,240,320C200,320,160,320,120,320C80,320,40,320,20,320L0,320Z"></path></svg>