<svg xmlns="http://www.w3.org/2000/svg" xmlns:xlink="http://www.w3.org/1999/xlink" width="1080" zoomAndPan="magnify" viewBox="0 0 810 809.999993" height="1080" preserveAspectRatio="xMidYMid meet" version="1.0"><defs><g/><clipPath id="aaa6ae7326"><path d="M 108 71.71875 L 701 71.71875 L 701 735 L 108 735 Z M 108 71.71875 " clip-rule="nonzero"/></clipPath></defs><g clip-path="url(#aaa6ae7326)"><path fill="#000000" d="M 388.703125 272.480469 C 388.703125 260.542969 388.027344 249.546875 388.8125 238.652344 C 391.617188 199.789062 403.066406 163.765625 426.5 132.242188 C 451.828125 98.167969 486.109375 79.222656 528.007812 73.765625 C 534.207031 72.945312 540.429688 72.40625 546.6875 71.71875 C 548.304688 123.097656 509.109375 207.007812 414.960938 217.4375 C 411.078125 235.6875 411.03125 254.207031 412.09375 273.425781 C 422.199219 268.988281 431.542969 264.527344 441.136719 260.726562 C 454.980469 255.148438 469.230469 250.941406 483.882812 248.109375 C 498.539062 245.277344 513.328125 243.867188 528.253906 243.886719 C 608.820312 244.132812 674.996094 296.023438 694.828125 374.171875 C 702.664062 405.082031 701.660156 436.214844 696.984375 467.234375 C 684.992188 546.695312 653.90625 617.867188 602.476562 679.835938 C 590.070312 694.789062 576.339844 708.492188 559.84375 719.054688 C 536.570312 733.996094 511.707031 738.480469 485.054688 729.988281 C 475.746094 727.039062 466.53125 723.769531 457.414062 720.183594 C 419.996094 705.683594 382.699219 705.585938 345.257812 720.183594 C 332.203125 725.433594 318.820312 729.636719 305.109375 732.796875 C 282.253906 737.785156 261.457031 731.019531 242.644531 717.929688 C 220.269531 702.398438 203.15625 681.589844 187.480469 659.539062 C 145.164062 599.972656 119.199219 533.972656 111.152344 461.328125 C 107.183594 425.625 107.757812 390.117188 120.277344 355.503906 C 147.34375 280.65625 219.078125 236.054688 298.203125 244.890625 C 328.207031 248.210938 356.269531 257.207031 383.324219 270.113281 C 384.550781 270.703125 385.835938 271.230469 388.703125 272.480469 Z M 388.703125 272.480469 " fill-opacity="1" fill-rule="nonzero"/></g><g fill="#000000" fill-opacity="1"><g transform="translate(388.082768, 407.999999)"><g><path d="M 3.390625 -6.359375 C 4.210938 -6.359375 4.84375 -6.148438 5.28125 -5.734375 C 5.726562 -5.328125 5.953125 -4.71875 5.953125 -3.90625 L 5.953125 0 L 5.140625 0 L 5.140625 -0.984375 C 4.941406 -0.648438 4.65625 -0.390625 4.28125 -0.203125 C 3.914062 -0.0234375 3.476562 0.0625 2.96875 0.0625 C 2.257812 0.0625 1.695312 -0.101562 1.28125 -0.4375 C 0.863281 -0.78125 0.65625 -1.226562 0.65625 -1.78125 C 0.65625 -2.3125 0.847656 -2.738281 1.234375 -3.0625 C 1.628906 -3.394531 2.25 -3.5625 3.09375 -3.5625 L 5.09375 -3.5625 L 5.09375 -3.953125 C 5.09375 -4.492188 4.941406 -4.90625 4.640625 -5.1875 C 4.335938 -5.46875 3.894531 -5.609375 3.3125 -5.609375 C 2.914062 -5.609375 2.53125 -5.539062 2.15625 -5.40625 C 1.789062 -5.28125 1.476562 -5.101562 1.21875 -4.875 L 0.828125 -5.515625 C 1.148438 -5.785156 1.535156 -5.992188 1.984375 -6.140625 C 2.429688 -6.285156 2.898438 -6.359375 3.390625 -6.359375 Z M 3.09375 -0.609375 C 3.570312 -0.609375 3.984375 -0.71875 4.328125 -0.9375 C 4.671875 -1.15625 4.925781 -1.472656 5.09375 -1.890625 L 5.09375 -2.921875 L 3.125 -2.921875 C 2.039062 -2.921875 1.5 -2.546875 1.5 -1.796875 C 1.5 -1.429688 1.640625 -1.140625 1.921875 -0.921875 C 2.203125 -0.710938 2.59375 -0.609375 3.09375 -0.609375 Z M 3.09375 -0.609375 "/></g></g></g><g fill="#000000" fill-opacity="1"><g transform="translate(395.162781, 407.999999)"><g><path d="M 4.4375 -6.359375 C 5.03125 -6.359375 5.566406 -6.222656 6.046875 -5.953125 C 6.523438 -5.691406 6.898438 -5.316406 7.171875 -4.828125 C 7.441406 -4.335938 7.578125 -3.78125 7.578125 -3.15625 C 7.578125 -2.519531 7.441406 -1.957031 7.171875 -1.46875 C 6.898438 -0.988281 6.523438 -0.613281 6.046875 -0.34375 C 5.578125 -0.0703125 5.039062 0.0625 4.4375 0.0625 C 3.925781 0.0625 3.460938 -0.0390625 3.046875 -0.25 C 2.640625 -0.46875 2.304688 -0.78125 2.046875 -1.1875 L 2.046875 2.328125 L 1.1875 2.328125 L 1.1875 -6.3125 L 2 -6.3125 L 2 -5.0625 C 2.257812 -5.476562 2.597656 -5.796875 3.015625 -6.015625 C 3.429688 -6.242188 3.90625 -6.359375 4.4375 -6.359375 Z M 4.375 -0.703125 C 4.820312 -0.703125 5.222656 -0.800781 5.578125 -1 C 5.941406 -1.207031 6.222656 -1.5 6.421875 -1.875 C 6.628906 -2.25 6.734375 -2.675781 6.734375 -3.15625 C 6.734375 -3.632812 6.628906 -4.054688 6.421875 -4.421875 C 6.222656 -4.796875 5.941406 -5.085938 5.578125 -5.296875 C 5.222656 -5.503906 4.820312 -5.609375 4.375 -5.609375 C 3.925781 -5.609375 3.523438 -5.503906 3.171875 -5.296875 C 2.816406 -5.085938 2.535156 -4.796875 2.328125 -4.421875 C 2.128906 -4.054688 2.03125 -3.632812 2.03125 -3.15625 C 2.03125 -2.675781 2.128906 -2.25 2.328125 -1.875 C 2.535156 -1.5 2.816406 -1.207031 3.171875 -1 C 3.523438 -0.800781 3.925781 -0.703125 4.375 -0.703125 Z M 4.375 -0.703125 "/></g></g></g><g fill="#000000" fill-opacity="1"><g transform="translate(403.298797, 407.999999)"><g><path d="M 4.4375 -6.359375 C 5.03125 -6.359375 5.566406 -6.222656 6.046875 -5.953125 C 6.523438 -5.691406 6.898438 -5.316406 7.171875 -4.828125 C 7.441406 -4.335938 7.578125 -3.78125 7.578125 -3.15625 C 7.578125 -2.519531 7.441406 -1.957031 7.171875 -1.46875 C 6.898438 -0.988281 6.523438 -0.613281 6.046875 -0.34375 C 5.578125 -0.0703125 5.039062 0.0625 4.4375 0.0625 C 3.925781 0.0625 3.460938 -0.0390625 3.046875 -0.25 C 2.640625 -0.46875 2.304688 -0.78125 2.046875 -1.1875 L 2.046875 2.328125 L 1.1875 2.328125 L 1.1875 -6.3125 L 2 -6.3125 L 2 -5.0625 C 2.257812 -5.476562 2.597656 -5.796875 3.015625 -6.015625 C 3.429688 -6.242188 3.90625 -6.359375 4.4375 -6.359375 Z M 4.375 -0.703125 C 4.820312 -0.703125 5.222656 -0.800781 5.578125 -1 C 5.941406 -1.207031 6.222656 -1.5 6.421875 -1.875 C 6.628906 -2.25 6.734375 -2.675781 6.734375 -3.15625 C 6.734375 -3.632812 6.628906 -4.054688 6.421875 -4.421875 C 6.222656 -4.796875 5.941406 -5.085938 5.578125 -5.296875 C 5.222656 -5.503906 4.820312 -5.609375 4.375 -5.609375 C 3.925781 -5.609375 3.523438 -5.503906 3.171875 -5.296875 C 2.816406 -5.085938 2.535156 -4.796875 2.328125 -4.421875 C 2.128906 -4.054688 2.03125 -3.632812 2.03125 -3.15625 C 2.03125 -2.675781 2.128906 -2.25 2.328125 -1.875 C 2.535156 -1.5 2.816406 -1.207031 3.171875 -1 C 3.523438 -0.800781 3.925781 -0.703125 4.375 -0.703125 Z M 4.375 -0.703125 "/></g></g></g><g fill="#000000" fill-opacity="1"><g transform="translate(411.434814, 407.999999)"><g><path d="M 1.1875 -8.90625 L 2.046875 -8.90625 L 2.046875 0 L 1.1875 0 Z M 1.1875 -8.90625 "/></g></g></g><g fill="#000000" fill-opacity="1"><g transform="translate(414.662826, 407.999999)"><g><path d="M 6.6875 -2.890625 L 1.40625 -2.890625 C 1.445312 -2.234375 1.695312 -1.703125 2.15625 -1.296875 C 2.613281 -0.898438 3.191406 -0.703125 3.890625 -0.703125 C 4.273438 -0.703125 4.628906 -0.769531 4.953125 -0.90625 C 5.285156 -1.039062 5.570312 -1.25 5.8125 -1.53125 L 6.296875 -0.96875 C 6.015625 -0.632812 5.664062 -0.378906 5.25 -0.203125 C 4.832031 -0.0234375 4.367188 0.0625 3.859375 0.0625 C 3.210938 0.0625 2.640625 -0.0703125 2.140625 -0.34375 C 1.640625 -0.625 1.25 -1.007812 0.96875 -1.5 C 0.6875 -1.988281 0.546875 -2.539062 0.546875 -3.15625 C 0.546875 -3.769531 0.679688 -4.320312 0.953125 -4.8125 C 1.222656 -5.300781 1.59375 -5.679688 2.0625 -5.953125 C 2.53125 -6.222656 3.054688 -6.359375 3.640625 -6.359375 C 4.222656 -6.359375 4.742188 -6.222656 5.203125 -5.953125 C 5.671875 -5.679688 6.035156 -5.300781 6.296875 -4.8125 C 6.566406 -4.332031 6.703125 -3.78125 6.703125 -3.15625 Z M 3.640625 -5.625 C 3.023438 -5.625 2.507812 -5.429688 2.09375 -5.046875 C 1.6875 -4.660156 1.457031 -4.15625 1.40625 -3.53125 L 5.875 -3.53125 C 5.820312 -4.15625 5.585938 -4.660156 5.171875 -5.046875 C 4.765625 -5.429688 4.253906 -5.625 3.640625 -5.625 Z M 3.640625 -5.625 "/></g></g></g></svg>