<svg xmlns="http://www.w3.org/2000/svg" xmlns:xlink="http://www.w3.org/1999/xlink" width="500" zoomAndPan="magnify" viewBox="0 0 375 374.999991" height="500" preserveAspectRatio="xMidYMid meet" version="1.0"><defs><g/><clipPath id="c1975a5c7c"><path d="M 85.078125 91 L 287 91 L 287 202 L 85.078125 202 Z M 85.078125 91 " clip-rule="nonzero"/></clipPath></defs><rect x="-37.5" width="450" fill="#ffffff" y="-37.499999" height="449.999989" fill-opacity="1"/><rect x="-37.5" width="450" fill="#e6e6e6" y="-37.499999" height="449.999989" fill-opacity="1"/><g clip-path="url(#c1975a5c7c)"><path fill="#4c4c4c" d="M 265.792969 138.050781 C 265.558594 137.0625 265.820312 135.84375 265.710938 134.785156 C 265.699219 132.976562 265.691406 129.261719 265.6875 128.109375 C 265.824219 126.585938 265.035156 124.203125 266.582031 123.140625 C 268.136719 122.308594 269.703125 123.535156 269.59375 125.046875 C 269.710938 127.363281 269.757812 136.28125 269.507812 138.003906 C 269.492188 138.089844 269.441406 138.144531 269.320312 138.179688 C 268.816406 138.28125 266.359375 138.367188 265.855469 138.113281 Z M 86 181.011719 C 85.910156 176.09375 85.066406 174.644531 91.359375 175.105469 C 94.496094 175.160156 98.679688 175.125 102.003906 175.136719 C 102.398438 175.101562 102.3125 174.613281 102.339844 174.292969 C 102.476562 171.257812 102.152344 168.210938 102.351562 165.210938 C 102.671875 163.160156 105.28125 163.355469 107.0625 163.398438 C 108.316406 163.429688 110.617188 163.398438 112.238281 163.417969 C 112.632812 163.417969 112.875 163.402344 112.976562 163.253906 C 113.234375 159.3125 112.953125 155.230469 113.085938 151.257812 C 113.0625 149.832031 111.152344 149.3125 110.816406 147.910156 C 110.046875 146.046875 110.878906 143.804688 112.679688 142.714844 C 113.332031 142.269531 114.234375 142.167969 114.671875 141.589844 C 116.917969 137.261719 118.40625 132.710938 120.382812 128.261719 C 122.925781 122.257812 125.667969 115.800781 128.097656 109.921875 C 128.679688 108.535156 129.25 106.847656 130.664062 106.023438 C 131.21875 105.664062 131.988281 105.421875 132.21875 104.804688 C 133.019531 101.921875 134.089844 96.773438 135.558594 94.605469 C 138.15625 90.777344 144.636719 90.183594 147.945312 93.53125 C 148.550781 93.964844 148.890625 94.867188 149.609375 95.121094 C 150.390625 95.136719 151.003906 94.273438 151.6875 93.964844 C 152.285156 93.59375 152.96875 93.679688 153.675781 93.933594 C 154.917969 94.347656 156.035156 94.714844 157.277344 95.097656 C 165.128906 97.375 175.984375 101.003906 187.238281 104.34375 C 189.15625 103.800781 191.554688 103.730469 193.121094 105.132812 C 194.167969 105.992188 194.769531 107.121094 194.898438 108.335938 C 195 108.816406 194.855469 109.507812 195.1875 109.882812 C 196.695312 110.820312 200.574219 112.0625 201.671875 112.828125 C 202.484375 113.136719 199.664062 114.800781 199.390625 115.140625 C 195.949219 118.042969 194.121094 122.054688 192.421875 125.972656 C 192.171875 126.671875 191.613281 126.726562 190.988281 126.378906 C 176.726562 119.660156 162.324219 113.1875 147.96875 106.644531 C 147.265625 106.285156 146.832031 106.601562 146.675781 107.242188 C 141.402344 124.566406 136.910156 139.34375 130.945312 157.488281 C 130.0625 160.285156 128.644531 162.929688 128.8125 165.953125 C 128.8125 167.457031 129.175781 169.1875 129.09375 170.640625 C 129.039062 170.777344 128.90625 170.820312 128.742188 170.828125 C 127.476562 170.84375 123.375 170.789062 122.269531 170.84375 C 122.210938 170.863281 122.167969 170.894531 122.144531 170.949219 C 122.046875 171.433594 122.117188 171.988281 122.101562 172.652344 C 122.148438 173.417969 121.984375 174.585938 122.199219 175.101562 C 123.820312 175.265625 127.527344 175.101562 128.757812 175.15625 C 130.226562 175.226562 132.722656 174.675781 133.445312 176.015625 C 134.082031 177.570312 133.765625 179.347656 133.800781 181 C 133.785156 183.316406 133.796875 185.804688 133.789062 188.386719 C 133.90625 189.386719 133.457031 190.011719 134.171875 190.59375 C 138.476562 193.964844 144.210938 198.296875 148.164062 201.539062 C 138.917969 201.320312 110.496094 201.746094 97.636719 201.496094 C 95.402344 201.242188 94.351562 198.855469 92.820312 197.542969 C 91.636719 196.378906 89.746094 194.328125 88.78125 193.394531 C 87.949219 192.507812 86.910156 191.664062 86.320312 190.621094 C 85.441406 187.589844 86.140625 184.253906 86 181.132812 Z M 187.050781 109.75 C 188.644531 112.742188 193.410156 110.964844 192.398438 107.8125 C 191.042969 104.402344 185.648438 106.304688 187.007812 109.660156 L 187.050781 109.746094 Z M 151.902344 98.636719 C 153.144531 99.269531 168.386719 103.929688 173.394531 105.617188 C 175.585938 106.320312 178.769531 107.351562 180.144531 107.789062 C 181.230469 108.113281 182.371094 108.507812 183.4375 108.847656 C 183.828125 108.957031 184.246094 108.886719 184.390625 108.488281 C 184.609375 107.976562 184.347656 107.480469 183.828125 107.28125 C 180.214844 105.914062 176.28125 104.886719 172.597656 103.699219 C 167.511719 102.078125 154.578125 97.910156 153.480469 97.59375 C 153.074219 97.707031 152.207031 98.449219 151.933594 98.613281 L 151.902344 98.644531 Z M 138.269531 100.632812 C 138.9375 102.832031 142.050781 104.167969 144.207031 102.800781 C 146.832031 101.488281 147.203125 97.746094 144.902344 96.039062 C 141.535156 93.453125 136.929688 96.890625 138.238281 100.535156 L 138.277344 100.632812 Z M 118.960938 143.089844 C 119.25 143.75 119.953125 144.285156 120.160156 145.007812 C 120.84375 146.699219 120.207031 148.753906 118.714844 149.898438 C 118.070312 150.378906 117.105469 150.664062 117.191406 151.582031 C 117.257812 155.464844 117.09375 159.5 117.238281 163.34375 C 117.5 163.769531 118.179688 163.484375 119.011719 163.566406 C 119.660156 163.566406 120.183594 163.566406 120.351562 163.566406 C 122.082031 156.667969 128.746094 123.332031 129.914062 117.019531 C 129.914062 116.675781 129.777344 116.96875 129.664062 117.191406 C 128.394531 120.082031 127.1875 123 125.972656 125.914062 C 123.75 131.617188 121.019531 137.300781 118.9375 142.992188 L 118.957031 143.082031 Z M 113.335938 147.507812 C 114.691406 149.679688 118.308594 148.535156 118.011719 146.082031 C 117.863281 144.6875 116.230469 143.789062 114.847656 144.101562 C 113.433594 144.566406 112.527344 146.148438 113.289062 147.429688 Z M 271.578125 201.203125 C 268.671875 201.761719 265.492188 201.496094 262.488281 201.527344 C 260.636719 201.515625 254.25 201.527344 251.277344 201.519531 C 239.957031 201.519531 214 201.507812 209.386719 201.515625 C 194.109375 201.507812 185.582031 201.527344 175.695312 201.53125 C 160.835938 202.832031 150.871094 188.621094 158.164062 176.71875 C 161.128906 171.972656 166.65625 168.667969 172.621094 168.300781 C 176.257812 168.027344 180.003906 168.910156 183.160156 170.566406 C 183.644531 170.820312 184.15625 171.027344 184.707031 171.101562 C 198.746094 171.28125 214.636719 171.050781 228.734375 171.128906 C 238.167969 171.089844 247.1875 171.160156 256.605469 171.167969 C 258.027344 171.136719 259.234375 170.378906 260.496094 169.863281 C 262.082031 169.25 263.75 168.8125 265.46875 168.582031 C 272.257812 167.628906 279.457031 170.546875 283.148438 175.90625 C 289.902344 185.328125 283.898438 199.0625 271.699219 201.1875 L 271.585938 201.210938 Z M 185.515625 183.808594 C 184.429688 175.574219 173.667969 171.753906 166.699219 176.871094 C 160.882812 181.003906 161.199219 189.660156 167.160156 193.558594 C 175.042969 199.066406 186.699219 192.988281 185.53125 183.925781 L 185.519531 183.816406 Z M 191.699219 181.660156 C 191.503906 182.160156 191.851562 182.777344 191.867188 183.335938 C 191.964844 183.957031 191.996094 184.609375 192.046875 185.210938 C 192.058594 185.316406 192.082031 185.351562 192.117188 185.355469 C 201.726562 185.355469 236.414062 185.355469 244.800781 185.34375 C 246.125 185.339844 247.636719 185.464844 249 185.375 C 249.566406 185.363281 249.863281 185.011719 249.855469 184.496094 C 249.886719 183.742188 250.886719 181.574219 249.429688 181.507812 C 230.238281 181.671875 210.871094 181.398438 191.753906 181.605469 L 191.707031 181.660156 Z M 252.300781 193.925781 C 252.417969 193.769531 252.550781 193.625 252.460938 193.296875 C 252.207031 192.578125 251.367188 191.289062 251.039062 190.878906 C 250.894531 190.722656 250.886719 190.675781 250.773438 190.644531 C 250.3125 190.644531 247.011719 190.644531 242.179688 190.636719 C 225.980469 190.625 192.5625 190.601562 191.019531 190.605469 C 190.683594 190.90625 190.503906 191.789062 190.046875 192.5625 C 189.707031 193.125 189.421875 193.855469 190.109375 194.316406 C 191.292969 195.117188 192.46875 196.238281 193.8125 196.769531 C 194.054688 196.730469 193.640625 195.925781 193.390625 195.328125 C 193.28125 194.941406 192.609375 194.019531 193.027344 193.847656 C 194.546875 193.761719 197.738281 193.835938 198.804688 193.8125 C 199.175781 193.8125 199.40625 193.914062 199.722656 194.109375 C 200.578125 194.65625 202.199219 195.675781 203.132812 196.476562 C 204.402344 197.835938 203.785156 196.027344 203.527344 195.355469 C 203.363281 194.875 202.96875 194.402344 202.84375 193.957031 C 202.84375 193.902344 202.886719 193.871094 202.964844 193.847656 C 203.90625 193.824219 207.320312 193.757812 208.898438 193.855469 C 209.773438 194.15625 212.335938 196.050781 213.289062 196.851562 C 213.597656 197.089844 213.644531 196.917969 213.566406 196.410156 C 213.46875 195.695312 213.125 194.90625 212.820312 194.292969 C 212.796875 194.195312 212.742188 194.054688 212.816406 193.96875 C 213.589844 193.613281 214.945312 193.914062 215.886719 193.824219 C 216.910156 193.859375 217.96875 193.738281 218.949219 193.871094 C 220.582031 194.472656 222.132812 196.070312 223.515625 197 C 223.671875 197.058594 223.695312 196.859375 223.628906 196.46875 C 223.503906 195.753906 223.132812 194.851562 222.792969 194.195312 C 222.652344 193.945312 222.691406 193.804688 223.003906 193.8125 C 224.207031 193.832031 227.261719 193.738281 228.886719 193.824219 C 229.875 194.152344 232.171875 195.972656 233.160156 196.828125 C 233.464844 197.082031 233.535156 196.914062 233.449219 196.390625 C 233.328125 195.644531 232.945312 194.777344 232.503906 194.144531 C 232.335938 193.921875 232.339844 193.777344 232.660156 193.789062 C 234.050781 193.855469 237.152344 193.667969 238.847656 193.914062 C 240.003906 194.371094 241.886719 196.027344 242.835938 196.761719 C 243.121094 197 243.257812 196.945312 243.144531 196.414062 C 243.023438 195.765625 242.640625 194.867188 242.378906 194.335938 C 242.332031 194.210938 242.261719 194.019531 242.359375 193.921875 C 242.433594 193.835938 242.597656 193.792969 242.820312 193.78125 C 244.46875 193.757812 246.292969 193.734375 247.945312 193.78125 C 248.722656 193.800781 249.273438 194.15625 249.894531 194.59375 C 250.851562 195.191406 252.046875 196.226562 252.871094 196.847656 C 253.042969 196.914062 253.03125 196.609375 252.890625 196.117188 C 252.777344 195.390625 252.097656 194.644531 252.296875 193.945312 L 252.328125 193.898438 Z M 279.347656 183.730469 C 278.769531 177.921875 272.398438 173.601562 266.183594 174.597656 C 254.628906 176.257812 252.472656 190.238281 263.140625 194.679688 C 271.050781 197.9375 280.367188 191.773438 279.359375 183.832031 L 279.347656 183.726562 Z M 177.613281 179.972656 C 170.554688 176.121094 163.652344 184.464844 169.738281 189.605469 C 176.902344 194.769531 185.027344 185.042969 177.710938 180.035156 Z M 271.808594 180.1875 C 264.332031 175.597656 256.707031 185.167969 264.214844 190.023438 C 271.277344 193.910156 278.242188 185.140625 271.90625 180.253906 Z M 244.089844 138.335938 C 250.421875 138.695312 267.828125 138.363281 269.832031 138.472656 C 271.5625 138.464844 274.285156 138.453125 275.628906 138.441406 C 278.238281 138.375 281.191406 138.246094 283.257812 140.007812 C 285.964844 142.046875 286.152344 145.171875 286.023438 148.140625 C 285.992188 151 286.011719 155.242188 285.988281 157.589844 C 285.957031 159.882812 286.242188 162.558594 285.902344 164.757812 C 285.496094 168.234375 281.101562 167.621094 278.316406 167.585938 C 276.867188 167.609375 274.140625 167.53125 271.148438 167.550781 C 267.113281 167.507812 248.097656 167.597656 238.53125 167.59375 C 237.082031 167.445312 176.585938 167.652344 163.960938 167.488281 C 163.957031 165.15625 163.863281 162.675781 163.917969 160.339844 C 163.6875 153.960938 168.144531 147.210938 175.25 145.765625 C 178.632812 145.085938 184.070312 144.226562 187.085938 143.628906 C 187.523438 143.558594 187.652344 143.136719 187.839844 142.796875 C 188.761719 140.960938 189.617188 139.015625 190.496094 137.179688 C 192.050781 133.992188 194.285156 129.222656 195.296875 127.128906 C 198 120.054688 203.128906 113.292969 211.988281 113.125 C 220.160156 112.917969 229.324219 113.203125 237.324219 113.09375 C 239.429688 113.199219 242.3125 112.5 243.652344 114.429688 C 244.820312 116.949219 244.097656 120.09375 244.222656 122.898438 C 244.042969 127.972656 244.527344 133.214844 244.097656 138.277344 L 244.097656 138.324219 Z M 236.570312 131.714844 C 236.558594 127.976562 236.8125 123.976562 236.546875 120.292969 C 236.492188 117.859375 233.335938 118.386719 231.484375 118.367188 C 229.953125 118.367188 226.671875 118.386719 225.863281 118.386719 C 223.25 118.386719 219.699219 118.386719 217.015625 118.382812 C 215.132812 118.40625 213.125 118.242188 211.25 118.476562 C 205.617188 119.394531 203.769531 122.800781 201.871094 127.304688 C 200.628906 129.914062 198.859375 133.695312 197.609375 136.320312 C 196.875 137.84375 196.160156 139.410156 195.382812 141.039062 C 194.859375 142.191406 194.078125 143.496094 193.691406 144.886719 C 193.390625 146.191406 193.472656 148.328125 193.539062 150.003906 C 193.597656 150.71875 193.597656 151.199219 193.9375 151.8125 C 194.363281 152.523438 195.371094 152.539062 196.167969 152.589844 C 199.644531 152.757812 203.226562 152.539062 206.679688 152.613281 C 208.679688 152.546875 210.882812 152.933594 212.796875 152.332031 C 213.96875 151.75 214.957031 150.453125 215.832031 149.511719 C 217.835938 147.914062 221.246094 143.40625 223.234375 142.144531 C 223.628906 141.894531 223.945312 141.796875 224.460938 141.730469 C 227.210938 141.390625 232.796875 142.226562 235.035156 141.574219 C 237.117188 140.878906 236.546875 138.308594 236.601562 136.722656 C 236.582031 135.320312 236.582031 133.226562 236.5625 131.789062 L 236.5625 131.710938 Z M 250.722656 157.128906 C 250.75 157.523438 250.90625 158.039062 251.308594 158.015625 C 254.773438 158.070312 275.542969 158.167969 277.515625 158.015625 C 277.722656 157.972656 277.769531 157.777344 277.8125 157.425781 C 277.847656 156.96875 277.300781 156.824219 276.867188 156.84375 C 270.527344 156.734375 264.300781 156.929688 257.964844 156.824219 C 256.132812 156.789062 253.566406 156.734375 251.957031 156.800781 C 251.347656 156.855469 250.804688 156.789062 250.738281 157.074219 L 250.722656 157.140625 Z M 277.847656 160.066406 C 277.804688 159.792969 277.777344 159.675781 277.585938 159.664062 C 272.824219 159.746094 258.074219 159.511719 251.347656 159.671875 C 251.046875 159.707031 250.808594 159.867188 250.808594 160.175781 C 250.796875 160.613281 251.167969 160.902344 251.621094 160.914062 C 253.429688 160.996094 255.320312 160.929688 257.132812 160.933594 C 261.078125 160.933594 267.882812 160.933594 273.035156 160.933594 C 274.28125 160.921875 275.039062 160.957031 276.433594 160.96875 C 277.179688 161.007812 277.871094 160.824219 277.855469 160.144531 L 277.855469 160.058594 Z M 277.792969 154.25 C 277.710938 154.058594 277.496094 153.976562 277.273438 153.9375 C 275.707031 153.765625 274.097656 153.941406 272.53125 153.894531 C 266.882812 153.875 260.265625 153.863281 255.804688 153.851562 C 254.292969 153.875 252.648438 153.691406 251.160156 153.90625 C 250.621094 154.050781 250.722656 154.835938 251.160156 155.015625 C 253.296875 155.351562 255.71875 155.066406 257.886719 155.144531 C 263.128906 155.144531 268.265625 155.144531 271.992188 155.144531 C 273.589844 155.144531 274.710938 155.132812 276.191406 155.167969 C 276.847656 155.222656 277.925781 155.132812 277.8125 154.324219 L 277.789062 154.246094 Z M 277.78125 151.289062 C 277.679688 151.101562 277.453125 151.039062 277.222656 151.003906 C 275.425781 150.875 273.628906 151.003906 271.816406 150.96875 C 265.738281 150.960938 260.328125 150.960938 255.605469 150.957031 C 254.292969 150.957031 252.738281 150.882812 251.390625 150.96875 C 251.082031 151 250.796875 151.167969 250.808594 151.488281 C 250.808594 151.84375 251.101562 152.109375 251.476562 152.15625 C 253.5 152.304688 255.484375 152.144531 257.535156 152.195312 C 263.671875 152.21875 268.554688 152.230469 273.277344 152.242188 C 274.007812 152.242188 274.757812 152.273438 275.5625 152.277344 C 276.386719 152.253906 277.96875 152.46875 277.804688 151.355469 L 277.777344 151.285156 Z M 250.707031 149.21875 C 250.699219 149.28125 250.699219 149.3125 250.710938 149.324219 C 250.960938 149.339844 252.867188 149.324219 255.539062 149.324219 C 260.394531 149.3125 275.875 149.285156 277.328125 149.28125 C 277.722656 149.242188 277.996094 148.484375 277.601562 148.183594 C 277.355469 148.007812 276.980469 148.035156 276.457031 148.007812 C 274.582031 147.953125 272.105469 148.042969 270.195312 148.035156 C 264.070312 148.007812 257.855469 147.871094 251.714844 147.976562 C 250.773438 147.914062 250.796875 148.558594 250.710938 149.171875 L 250.710938 149.21875 Z M 250.707031 149.21875 " fill-opacity="1" fill-rule="nonzero"/></g><g fill="#4c4c4c" fill-opacity="1"><g transform="translate(68.117346, 258.625477)"><g><path d="M 2.46875 -0.796875 L 2.46875 -38.703125 C 2.46875 -39.222656 2.726562 -39.484375 3.25 -39.484375 L 15.109375 -39.484375 C 17.441406 -39.484375 19.207031 -38.875 20.40625 -37.65625 C 21.613281 -36.4375 22.21875 -34.660156 22.21875 -32.328125 L 22.21875 -7.109375 C 22.21875 -4.804688 21.613281 -3.046875 20.40625 -1.828125 C 19.207031 -0.609375 17.441406 0 15.109375 0 L 3.25 0 C 2.726562 0 2.46875 -0.265625 2.46875 -0.796875 Z M 9.1875 -6.515625 L 13.71875 -6.515625 C 15.039062 -6.515625 15.703125 -7.171875 15.703125 -8.484375 L 15.703125 -30.953125 C 15.703125 -32.296875 15.039062 -32.96875 13.71875 -32.96875 L 9.1875 -32.96875 Z M 9.1875 -6.515625 "/></g></g></g><g fill="#4c4c4c" fill-opacity="1"><g transform="translate(99.554136, 258.625477)"><g><path d="M 22.15625 -38.703125 L 22.15625 -33.765625 C 22.15625 -33.203125 21.894531 -32.921875 21.375 -32.921875 L 9.03125 -32.921875 L 9.03125 -23.046875 L 18.453125 -23.046875 C 18.984375 -23.046875 19.25 -22.769531 19.25 -22.21875 L 19.25 -17.328125 C 19.25 -16.765625 18.984375 -16.484375 18.453125 -16.484375 L 9.03125 -16.484375 L 9.03125 -6.515625 L 21.375 -6.515625 C 21.894531 -6.515625 22.15625 -6.25 22.15625 -5.71875 L 22.15625 -0.796875 C 22.15625 -0.265625 21.894531 0 21.375 0 L 3.203125 0 C 2.710938 0 2.46875 -0.265625 2.46875 -0.796875 L 2.46875 -38.703125 C 2.46875 -39.222656 2.710938 -39.484375 3.203125 -39.484375 L 21.375 -39.484375 C 21.894531 -39.484375 22.15625 -39.222656 22.15625 -38.703125 Z M 22.15625 -38.703125 "/></g></g></g><g fill="#4c4c4c" fill-opacity="1"><g transform="translate(130.941581, 258.625477)"><g><path d="M 22.265625 -32.375 L 22.265625 -23.296875 C 22.265625 -22.378906 21.96875 -21.609375 21.375 -20.984375 C 20.78125 -20.359375 20.039062 -19.960938 19.15625 -19.796875 L 19.15625 -19.6875 C 20.039062 -19.5625 20.78125 -19.175781 21.375 -18.53125 C 21.96875 -17.894531 22.265625 -17.113281 22.265625 -16.1875 L 22.265625 -7.109375 C 22.265625 -4.804688 21.65625 -3.046875 20.4375 -1.828125 C 19.21875 -0.609375 17.441406 0 15.109375 0 L 3.25 0 C 2.726562 0 2.46875 -0.265625 2.46875 -0.796875 L 2.46875 -38.703125 C 2.46875 -39.222656 2.726562 -39.484375 3.25 -39.484375 L 15.109375 -39.484375 C 17.441406 -39.484375 19.21875 -38.882812 20.4375 -37.6875 C 21.65625 -36.488281 22.265625 -34.71875 22.265625 -32.375 Z M 15.703125 -24.921875 L 15.703125 -31 C 15.703125 -32.3125 15.039062 -32.96875 13.71875 -32.96875 L 9.234375 -32.96875 L 9.234375 -23 L 13.71875 -23 C 15.039062 -23 15.703125 -23.640625 15.703125 -24.921875 Z M 15.703125 -8.484375 L 15.703125 -14.515625 C 15.703125 -15.828125 15.039062 -16.484375 13.71875 -16.484375 L 9.234375 -16.484375 L 9.234375 -6.515625 L 13.71875 -6.515625 C 15.039062 -6.515625 15.703125 -7.171875 15.703125 -8.484375 Z M 15.703125 -8.484375 "/></g></g></g><g fill="#4c4c4c" fill-opacity="1"><g transform="translate(162.42773, 258.625477)"><g><path d="M 22.75 -32.375 L 22.75 -20.34375 C 22.75 -17.050781 21.550781 -14.878906 19.15625 -13.828125 L 22.5625 -0.890625 C 22.71875 -0.296875 22.484375 0 21.859375 0 L 16.734375 0 C 16.273438 0 15.992188 -0.226562 15.890625 -0.6875 L 12.59375 -13.234375 L 9.1875 -13.234375 L 9.1875 -0.796875 C 9.1875 -0.265625 8.921875 0 8.390625 0 L 3.25 0 C 2.726562 0 2.46875 -0.265625 2.46875 -0.796875 L 2.46875 -38.703125 C 2.46875 -39.222656 2.726562 -39.484375 3.25 -39.484375 L 15.640625 -39.484375 C 17.984375 -39.484375 19.753906 -38.882812 20.953125 -37.6875 C 22.148438 -36.488281 22.75 -34.71875 22.75 -32.375 Z M 9.1875 -19.75 L 14.0625 -19.75 C 15.382812 -19.75 16.046875 -20.40625 16.046875 -21.71875 L 16.046875 -31 C 16.046875 -32.3125 15.382812 -32.96875 14.0625 -32.96875 L 9.1875 -32.96875 Z M 9.1875 -19.75 "/></g></g></g><g fill="#4c4c4c" fill-opacity="1"><g transform="translate(194.407365, 258.625477)"><g><path d="M 3.25 -39.484375 L 8.390625 -39.484375 C 8.921875 -39.484375 9.1875 -39.222656 9.1875 -38.703125 L 9.1875 -0.796875 C 9.1875 -0.265625 8.921875 0 8.390625 0 L 3.25 0 C 2.726562 0 2.46875 -0.265625 2.46875 -0.796875 L 2.46875 -38.703125 C 2.46875 -39.222656 2.726562 -39.484375 3.25 -39.484375 Z M 3.25 -39.484375 "/></g></g></g><g fill="#4c4c4c" fill-opacity="1"><g transform="translate(212.815757, 258.625477)"><g><path d="M 20.140625 -39.484375 L 25.078125 -39.484375 C 25.441406 -39.484375 25.703125 -39.382812 25.859375 -39.1875 C 26.023438 -38.988281 26.023438 -38.710938 25.859375 -38.359375 L 16.828125 -16.390625 L 16.828125 -0.984375 C 16.828125 -0.328125 16.5 0 15.84375 0 L 11.109375 0 C 10.453125 0 10.125 -0.328125 10.125 -0.984375 L 10.125 -16.390625 L 1.078125 -38.359375 C 0.953125 -38.710938 0.960938 -38.988281 1.109375 -39.1875 C 1.253906 -39.382812 1.507812 -39.484375 1.875 -39.484375 L 6.8125 -39.484375 C 7.375 -39.484375 7.753906 -39.222656 7.953125 -38.703125 L 13.46875 -24.53125 L 19 -38.703125 C 19.195312 -39.222656 19.578125 -39.484375 20.140625 -39.484375 Z M 20.140625 -39.484375 "/></g></g></g><g fill="#4c4c4c" fill-opacity="1"><g transform="translate(246.522661, 258.625477)"><g><path d="M 26.265625 0 L 21.03125 0 C 20.601562 0 20.335938 -0.226562 20.234375 -0.6875 L 18.859375 -7.890625 L 10.0625 -7.890625 L 8.734375 -0.6875 C 8.640625 -0.226562 8.378906 0 7.953125 0 L 2.671875 0 C 2.078125 0 1.863281 -0.28125 2.03125 -0.84375 L 10.21875 -38.796875 C 10.3125 -39.253906 10.59375 -39.484375 11.0625 -39.484375 L 17.921875 -39.484375 C 18.378906 -39.484375 18.65625 -39.253906 18.75 -38.796875 L 26.953125 -0.84375 C 27.046875 -0.28125 26.816406 0 26.265625 0 Z M 17.625 -13.625 L 14.46875 -30.84375 L 11.296875 -13.625 Z M 17.625 -13.625 "/></g></g></g><g fill="#4c4c4c" fill-opacity="1"><g transform="translate(282.203548, 258.625477)"><g><path d="M 15.5 -8.484375 L 15.5 -38.703125 C 15.5 -39.222656 15.757812 -39.484375 16.28125 -39.484375 L 21.421875 -39.484375 C 21.953125 -39.484375 22.21875 -39.222656 22.21875 -38.703125 L 22.21875 -7.109375 C 22.21875 -4.804688 21.609375 -3.046875 20.390625 -1.828125 C 19.171875 -0.609375 17.410156 0 15.109375 0 L 9.578125 0 C 7.273438 0 5.515625 -0.609375 4.296875 -1.828125 C 3.078125 -3.046875 2.46875 -4.804688 2.46875 -7.109375 L 2.46875 -12.234375 C 2.46875 -12.765625 2.726562 -13.03125 3.25 -13.03125 L 8.1875 -13.03125 C 8.71875 -13.03125 8.984375 -12.765625 8.984375 -12.234375 L 8.984375 -8.484375 C 8.984375 -7.171875 9.640625 -6.515625 10.953125 -6.515625 L 13.53125 -6.515625 C 14.84375 -6.515625 15.5 -7.171875 15.5 -8.484375 Z M 15.5 -8.484375 "/></g></g></g><g fill="#4c4c4c" fill-opacity="1"><g transform="translate(99.922072, 281.741837)"><g><path d="M 9.375 -5.4375 C 9.375 -5.78125 9.226562 -6.050781 8.9375 -6.25 C 8.644531 -6.445312 8.25 -6.585938 7.75 -6.671875 C 7.25 -6.765625 6.679688 -6.8125 6.046875 -6.8125 C 5.410156 -6.8125 4.820312 -6.78125 4.28125 -6.71875 C 3.75 -6.664062 3.316406 -6.570312 2.984375 -6.4375 C 2.648438 -6.300781 2.484375 -6.125 2.484375 -5.90625 L 2.484375 -5.796875 C 2.484375 -5.710938 2.503906 -5.625 2.546875 -5.53125 C 2.585938 -5.445312 2.707031 -5.359375 2.90625 -5.265625 C 3.101562 -5.171875 3.429688 -5.082031 3.890625 -5 C 4.359375 -4.914062 5.003906 -4.832031 5.828125 -4.75 C 6.847656 -4.65625 7.71875 -4.539062 8.4375 -4.40625 C 9.15625 -4.28125 9.703125 -4.0625 10.078125 -3.75 C 10.460938 -3.445312 10.65625 -2.992188 10.65625 -2.390625 L 10.65625 -2.265625 C 10.65625 -1.378906 10.257812 -0.753906 9.46875 -0.390625 C 8.675781 -0.0351562 7.441406 0.140625 5.765625 0.140625 C 4.191406 0.140625 3.015625 -0.117188 2.234375 -0.640625 C 1.453125 -1.171875 1.0625 -1.878906 1.0625 -2.765625 L 2.4375 -2.765625 C 2.4375 -2.285156 2.707031 -1.90625 3.25 -1.625 C 3.789062 -1.34375 4.628906 -1.203125 5.765625 -1.203125 C 6.140625 -1.203125 6.53125 -1.207031 6.9375 -1.21875 C 7.34375 -1.238281 7.71875 -1.28125 8.0625 -1.34375 C 8.414062 -1.414062 8.703125 -1.519531 8.921875 -1.65625 C 9.140625 -1.800781 9.25 -1.988281 9.25 -2.21875 L 9.25 -2.375 C 9.25 -2.4375 9.226562 -2.503906 9.1875 -2.578125 C 9.144531 -2.660156 9.019531 -2.75 8.8125 -2.84375 C 8.601562 -2.945312 8.257812 -3.046875 7.78125 -3.140625 C 7.300781 -3.234375 6.625 -3.316406 5.75 -3.390625 C 4.675781 -3.515625 3.796875 -3.640625 3.109375 -3.765625 C 2.429688 -3.898438 1.921875 -4.117188 1.578125 -4.421875 C 1.242188 -4.722656 1.078125 -5.175781 1.078125 -5.78125 L 1.078125 -5.890625 C 1.078125 -6.628906 1.476562 -7.1875 2.28125 -7.5625 C 3.082031 -7.945312 4.335938 -8.140625 6.046875 -8.140625 C 7.003906 -8.140625 7.832031 -8.050781 8.53125 -7.875 C 9.238281 -7.707031 9.78125 -7.425781 10.15625 -7.03125 C 10.539062 -6.632812 10.734375 -6.101562 10.734375 -5.4375 Z M 9.375 -5.4375 "/></g></g></g><g fill="#4c4c4c" fill-opacity="1"><g transform="translate(115.080467, 281.741837)"><g><path d="M 7.578125 -8.65625 C 7.148438 -8.65625 6.9375 -8.820312 6.9375 -9.15625 L 6.9375 -9.21875 C 6.9375 -9.550781 7.148438 -9.71875 7.578125 -9.71875 C 8.015625 -9.71875 8.234375 -9.550781 8.234375 -9.21875 L 8.234375 -9.171875 C 8.234375 -8.828125 8.015625 -8.65625 7.578125 -8.65625 Z M 4.734375 -8.640625 C 4.304688 -8.640625 4.09375 -8.8125 4.09375 -9.15625 L 4.09375 -9.203125 C 4.09375 -9.535156 4.304688 -9.703125 4.734375 -9.703125 C 5.171875 -9.703125 5.390625 -9.535156 5.390625 -9.203125 L 5.390625 -9.15625 C 5.390625 -8.8125 5.171875 -8.640625 4.734375 -8.640625 Z M 6.046875 0.140625 C 5.015625 0.140625 4.171875 0.03125 3.515625 -0.1875 C 2.867188 -0.40625 2.367188 -0.695312 2.015625 -1.0625 C 1.660156 -1.4375 1.414062 -1.851562 1.28125 -2.3125 C 1.144531 -2.769531 1.078125 -3.238281 1.078125 -3.71875 L 1.15625 -8 L 2.640625 -8 L 2.640625 -3.71875 C 2.640625 -3.25 2.753906 -2.828125 2.984375 -2.453125 C 3.210938 -2.085938 3.578125 -1.800781 4.078125 -1.59375 C 4.578125 -1.394531 5.234375 -1.296875 6.046875 -1.296875 C 6.878906 -1.296875 7.546875 -1.394531 8.046875 -1.59375 C 8.546875 -1.789062 8.90625 -2.070312 9.125 -2.4375 C 9.34375 -2.800781 9.453125 -3.226562 9.453125 -3.71875 L 9.515625 -8 L 11 -8 L 11 -3.90625 C 11 -3.394531 10.9375 -2.898438 10.8125 -2.421875 C 10.6875 -1.941406 10.445312 -1.507812 10.09375 -1.125 C 9.75 -0.738281 9.25 -0.429688 8.59375 -0.203125 C 7.945312 0.0234375 7.097656 0.140625 6.046875 0.140625 Z M 6.046875 0.140625 "/></g></g></g><g fill="#4c4c4c" fill-opacity="1"><g transform="translate(130.600069, 281.741837)"><g><path d="M 11.15625 -5.6875 C 11.15625 -5.101562 11.035156 -4.660156 10.796875 -4.359375 C 10.566406 -4.066406 10.265625 -3.859375 9.890625 -3.734375 C 10.273438 -3.515625 10.554688 -3.234375 10.734375 -2.890625 C 10.910156 -2.546875 11 -2.164062 11 -1.75 L 11 -0.796875 C 11 -0.660156 11.003906 -0.523438 11.015625 -0.390625 C 11.023438 -0.253906 11.039062 -0.125 11.0625 0 L 9.5 0 C 9.476562 -0.125 9.460938 -0.25 9.453125 -0.375 C 9.441406 -0.507812 9.4375 -0.632812 9.4375 -0.75 L 9.4375 -1.640625 C 9.4375 -1.859375 9.414062 -2.078125 9.375 -2.296875 C 9.34375 -2.523438 9.234375 -2.71875 9.046875 -2.875 C 8.867188 -3.03125 8.550781 -3.109375 8.09375 -3.109375 L 3.109375 -3.109375 L 3.109375 0 L 1.65625 0 L 1.65625 -8.03125 L 8.65625 -8.03125 C 9.4375 -8.03125 10.046875 -7.84375 10.484375 -7.46875 C 10.929688 -7.101562 11.15625 -6.554688 11.15625 -5.828125 Z M 3.109375 -4.53125 L 8.65625 -4.53125 C 9.039062 -4.53125 9.320312 -4.644531 9.5 -4.875 C 9.675781 -5.101562 9.765625 -5.375 9.765625 -5.6875 L 9.765625 -5.828125 C 9.765625 -5.960938 9.734375 -6.09375 9.671875 -6.21875 C 9.617188 -6.351562 9.507812 -6.460938 9.34375 -6.546875 C 9.1875 -6.640625 8.957031 -6.6875 8.65625 -6.6875 L 3.109375 -6.6875 Z M 3.109375 -4.53125 "/></g></g></g><g fill="#4c4c4c" fill-opacity="1"><g transform="translate(146.106285, 281.741837)"><g><path d="M 7.578125 -8.65625 C 7.148438 -8.65625 6.9375 -8.820312 6.9375 -9.15625 L 6.9375 -9.21875 C 6.9375 -9.550781 7.148438 -9.71875 7.578125 -9.71875 C 8.015625 -9.71875 8.234375 -9.550781 8.234375 -9.21875 L 8.234375 -9.171875 C 8.234375 -8.828125 8.015625 -8.65625 7.578125 -8.65625 Z M 4.734375 -8.640625 C 4.304688 -8.640625 4.09375 -8.8125 4.09375 -9.15625 L 4.09375 -9.203125 C 4.09375 -9.535156 4.304688 -9.703125 4.734375 -9.703125 C 5.171875 -9.703125 5.390625 -9.535156 5.390625 -9.203125 L 5.390625 -9.15625 C 5.390625 -8.8125 5.171875 -8.640625 4.734375 -8.640625 Z M 6.046875 0.140625 C 5.015625 0.140625 4.171875 0.03125 3.515625 -0.1875 C 2.867188 -0.40625 2.367188 -0.695312 2.015625 -1.0625 C 1.660156 -1.4375 1.414062 -1.851562 1.28125 -2.3125 C 1.144531 -2.769531 1.078125 -3.238281 1.078125 -3.71875 L 1.15625 -8 L 2.640625 -8 L 2.640625 -3.71875 C 2.640625 -3.25 2.753906 -2.828125 2.984375 -2.453125 C 3.210938 -2.085938 3.578125 -1.800781 4.078125 -1.59375 C 4.578125 -1.394531 5.234375 -1.296875 6.046875 -1.296875 C 6.878906 -1.296875 7.546875 -1.394531 8.046875 -1.59375 C 8.546875 -1.789062 8.90625 -2.070312 9.125 -2.4375 C 9.34375 -2.800781 9.453125 -3.226562 9.453125 -3.71875 L 9.515625 -8 L 11 -8 L 11 -3.90625 C 11 -3.394531 10.9375 -2.898438 10.8125 -2.421875 C 10.6875 -1.941406 10.445312 -1.507812 10.09375 -1.125 C 9.75 -0.738281 9.25 -0.429688 8.59375 -0.203125 C 7.945312 0.0234375 7.097656 0.140625 6.046875 0.140625 Z M 6.046875 0.140625 "/></g></g></g><g fill="#4c4c4c" fill-opacity="1"><g transform="translate(161.625887, 281.741837)"><g><path d="M 6.5 0.140625 C 5.46875 0.140625 4.601562 0.03125 3.90625 -0.1875 C 3.207031 -0.40625 2.648438 -0.703125 2.234375 -1.078125 C 1.828125 -1.460938 1.53125 -1.894531 1.34375 -2.375 C 1.15625 -2.863281 1.0625 -3.367188 1.0625 -3.890625 L 1.0625 -4.171875 C 1.0625 -4.703125 1.15625 -5.207031 1.34375 -5.6875 C 1.53125 -6.164062 1.828125 -6.59375 2.234375 -6.96875 C 2.648438 -7.351562 3.207031 -7.65625 3.90625 -7.875 C 4.601562 -8.09375 5.46875 -8.203125 6.5 -8.203125 C 7.625 -8.203125 8.578125 -8.054688 9.359375 -7.765625 C 10.148438 -7.484375 10.753906 -7.109375 11.171875 -6.640625 C 11.597656 -6.171875 11.828125 -5.671875 11.859375 -5.140625 L 10.375 -5.140625 C 10.320312 -5.453125 10.128906 -5.738281 9.796875 -6 C 9.460938 -6.257812 9.015625 -6.46875 8.453125 -6.625 C 7.890625 -6.78125 7.238281 -6.859375 6.5 -6.859375 C 5.539062 -6.859375 4.765625 -6.742188 4.171875 -6.515625 C 3.578125 -6.285156 3.144531 -5.96875 2.875 -5.5625 C 2.601562 -5.164062 2.46875 -4.703125 2.46875 -4.171875 L 2.46875 -3.890625 C 2.46875 -3.367188 2.601562 -2.90625 2.875 -2.5 C 3.144531 -2.09375 3.578125 -1.773438 4.171875 -1.546875 C 4.765625 -1.316406 5.539062 -1.203125 6.5 -1.203125 C 7.332031 -1.203125 8.007812 -1.28125 8.53125 -1.4375 C 9.0625 -1.59375 9.472656 -1.804688 9.765625 -2.078125 C 10.066406 -2.347656 10.265625 -2.660156 10.359375 -3.015625 L 11.84375 -3.015625 C 11.757812 -2.453125 11.523438 -1.929688 11.140625 -1.453125 C 10.765625 -0.972656 10.195312 -0.585938 9.4375 -0.296875 C 8.6875 -0.00390625 7.707031 0.140625 6.5 0.140625 Z M 6.5 0.140625 "/></g></g></g><g fill="#4c4c4c" fill-opacity="1"><g transform="translate(177.94816, 281.741837)"><g><path d="M 7.578125 -8.65625 C 7.148438 -8.65625 6.9375 -8.820312 6.9375 -9.15625 L 6.9375 -9.21875 C 6.9375 -9.550781 7.148438 -9.71875 7.578125 -9.71875 C 8.015625 -9.71875 8.234375 -9.550781 8.234375 -9.21875 L 8.234375 -9.171875 C 8.234375 -8.828125 8.015625 -8.65625 7.578125 -8.65625 Z M 4.734375 -8.640625 C 4.304688 -8.640625 4.09375 -8.8125 4.09375 -9.15625 L 4.09375 -9.203125 C 4.09375 -9.535156 4.304688 -9.703125 4.734375 -9.703125 C 5.171875 -9.703125 5.390625 -9.535156 5.390625 -9.203125 L 5.390625 -9.15625 C 5.390625 -8.8125 5.171875 -8.640625 4.734375 -8.640625 Z M 6.046875 0.140625 C 5.015625 0.140625 4.171875 0.03125 3.515625 -0.1875 C 2.867188 -0.40625 2.367188 -0.695312 2.015625 -1.0625 C 1.660156 -1.4375 1.414062 -1.851562 1.28125 -2.3125 C 1.144531 -2.769531 1.078125 -3.238281 1.078125 -3.71875 L 1.15625 -8 L 2.640625 -8 L 2.640625 -3.71875 C 2.640625 -3.25 2.753906 -2.828125 2.984375 -2.453125 C 3.210938 -2.085938 3.578125 -1.800781 4.078125 -1.59375 C 4.578125 -1.394531 5.234375 -1.296875 6.046875 -1.296875 C 6.878906 -1.296875 7.546875 -1.394531 8.046875 -1.59375 C 8.546875 -1.789062 8.90625 -2.070312 9.125 -2.4375 C 9.34375 -2.800781 9.453125 -3.226562 9.453125 -3.71875 L 9.515625 -8 L 11 -8 L 11 -3.90625 C 11 -3.394531 10.9375 -2.898438 10.8125 -2.421875 C 10.6875 -1.941406 10.445312 -1.507812 10.09375 -1.125 C 9.75 -0.738281 9.25 -0.429688 8.59375 -0.203125 C 7.945312 0.0234375 7.097656 0.140625 6.046875 0.140625 Z M 6.046875 0.140625 "/></g></g></g><g fill="#4c4c4c" fill-opacity="1"><g transform="translate(193.467766, 281.741837)"><g/></g></g><g fill="#4c4c4c" fill-opacity="1"><g transform="translate(202.164679, 281.741837)"><g><path d="M 11 -8.03125 L 6.4375 -4.015625 L 10.90625 0 L 8.890625 0 L 4.96875 -3.375 L 3.015625 -3.375 L 3.015625 0 L 1.65625 0 L 1.65625 -8.03125 L 3.015625 -8.03125 L 3.015625 -4.703125 L 5.1875 -4.703125 L 9.0625 -8.03125 Z M 11 -8.03125 "/></g></g></g><g fill="#4c4c4c" fill-opacity="1"><g transform="translate(216.680934, 281.741837)"><g><path d="M 6.046875 0.140625 C 5.015625 0.140625 4.171875 0.03125 3.515625 -0.1875 C 2.867188 -0.40625 2.367188 -0.695312 2.015625 -1.0625 C 1.660156 -1.4375 1.414062 -1.851562 1.28125 -2.3125 C 1.144531 -2.769531 1.078125 -3.238281 1.078125 -3.71875 L 1.15625 -8 L 2.640625 -8 L 2.640625 -3.71875 C 2.640625 -3.25 2.753906 -2.828125 2.984375 -2.453125 C 3.210938 -2.085938 3.578125 -1.800781 4.078125 -1.59375 C 4.578125 -1.394531 5.234375 -1.296875 6.046875 -1.296875 C 6.878906 -1.296875 7.546875 -1.394531 8.046875 -1.59375 C 8.546875 -1.789062 8.90625 -2.070312 9.125 -2.4375 C 9.34375 -2.800781 9.453125 -3.226562 9.453125 -3.71875 L 9.515625 -8 L 11 -8 L 11 -3.90625 C 11 -3.394531 10.9375 -2.898438 10.8125 -2.421875 C 10.6875 -1.941406 10.445312 -1.507812 10.09375 -1.125 C 9.75 -0.738281 9.25 -0.429688 8.59375 -0.203125 C 7.945312 0.0234375 7.097656 0.140625 6.046875 0.140625 Z M 6.046875 0.140625 "/></g></g></g><g fill="#4c4c4c" fill-opacity="1"><g transform="translate(232.20054, 281.741837)"><g><path d="M 11.15625 -5.6875 C 11.15625 -5.101562 11.035156 -4.660156 10.796875 -4.359375 C 10.566406 -4.066406 10.265625 -3.859375 9.890625 -3.734375 C 10.273438 -3.515625 10.554688 -3.234375 10.734375 -2.890625 C 10.910156 -2.546875 11 -2.164062 11 -1.75 L 11 -0.796875 C 11 -0.660156 11.003906 -0.523438 11.015625 -0.390625 C 11.023438 -0.253906 11.039062 -0.125 11.0625 0 L 9.5 0 C 9.476562 -0.125 9.460938 -0.25 9.453125 -0.375 C 9.441406 -0.507812 9.4375 -0.632812 9.4375 -0.75 L 9.4375 -1.640625 C 9.4375 -1.859375 9.414062 -2.078125 9.375 -2.296875 C 9.34375 -2.523438 9.234375 -2.71875 9.046875 -2.875 C 8.867188 -3.03125 8.550781 -3.109375 8.09375 -3.109375 L 3.109375 -3.109375 L 3.109375 0 L 1.65625 0 L 1.65625 -8.03125 L 8.65625 -8.03125 C 9.4375 -8.03125 10.046875 -7.84375 10.484375 -7.46875 C 10.929688 -7.101562 11.15625 -6.554688 11.15625 -5.828125 Z M 3.109375 -4.53125 L 8.65625 -4.53125 C 9.039062 -4.53125 9.320312 -4.644531 9.5 -4.875 C 9.675781 -5.101562 9.765625 -5.375 9.765625 -5.6875 L 9.765625 -5.828125 C 9.765625 -5.960938 9.734375 -6.09375 9.671875 -6.21875 C 9.617188 -6.351562 9.507812 -6.460938 9.34375 -6.546875 C 9.1875 -6.640625 8.957031 -6.6875 8.65625 -6.6875 L 3.109375 -6.6875 Z M 3.109375 -4.53125 "/></g></g></g><g fill="#4c4c4c" fill-opacity="1"><g transform="translate(247.706759, 281.741837)"><g><path d="M 9.375 -5.4375 C 9.375 -5.78125 9.226562 -6.050781 8.9375 -6.25 C 8.644531 -6.445312 8.25 -6.585938 7.75 -6.671875 C 7.25 -6.765625 6.679688 -6.8125 6.046875 -6.8125 C 5.410156 -6.8125 4.820312 -6.78125 4.28125 -6.71875 C 3.75 -6.664062 3.316406 -6.570312 2.984375 -6.4375 C 2.648438 -6.300781 2.484375 -6.125 2.484375 -5.90625 L 2.484375 -5.796875 C 2.484375 -5.710938 2.503906 -5.625 2.546875 -5.53125 C 2.585938 -5.445312 2.707031 -5.359375 2.90625 -5.265625 C 3.101562 -5.171875 3.429688 -5.082031 3.890625 -5 C 4.359375 -4.914062 5.003906 -4.832031 5.828125 -4.75 C 6.847656 -4.65625 7.71875 -4.539062 8.4375 -4.40625 C 9.15625 -4.28125 9.703125 -4.0625 10.078125 -3.75 C 10.460938 -3.445312 10.65625 -2.992188 10.65625 -2.390625 L 10.65625 -2.265625 C 10.65625 -1.378906 10.257812 -0.753906 9.46875 -0.390625 C 8.675781 -0.0351562 7.441406 0.140625 5.765625 0.140625 C 4.191406 0.140625 3.015625 -0.117188 2.234375 -0.640625 C 1.453125 -1.171875 1.0625 -1.878906 1.0625 -2.765625 L 2.4375 -2.765625 C 2.4375 -2.285156 2.707031 -1.90625 3.25 -1.625 C 3.789062 -1.34375 4.628906 -1.203125 5.765625 -1.203125 C 6.140625 -1.203125 6.53125 -1.207031 6.9375 -1.21875 C 7.34375 -1.238281 7.71875 -1.28125 8.0625 -1.34375 C 8.414062 -1.414062 8.703125 -1.519531 8.921875 -1.65625 C 9.140625 -1.800781 9.25 -1.988281 9.25 -2.21875 L 9.25 -2.375 C 9.25 -2.4375 9.226562 -2.503906 9.1875 -2.578125 C 9.144531 -2.660156 9.019531 -2.75 8.8125 -2.84375 C 8.601562 -2.945312 8.257812 -3.046875 7.78125 -3.140625 C 7.300781 -3.234375 6.625 -3.316406 5.75 -3.390625 C 4.675781 -3.515625 3.796875 -3.640625 3.109375 -3.765625 C 2.429688 -3.898438 1.921875 -4.117188 1.578125 -4.421875 C 1.242188 -4.722656 1.078125 -5.175781 1.078125 -5.78125 L 1.078125 -5.890625 C 1.078125 -6.628906 1.476562 -7.1875 2.28125 -7.5625 C 3.082031 -7.945312 4.335938 -8.140625 6.046875 -8.140625 C 7.003906 -8.140625 7.832031 -8.050781 8.53125 -7.875 C 9.238281 -7.707031 9.78125 -7.425781 10.15625 -7.03125 C 10.539062 -6.632812 10.734375 -6.101562 10.734375 -5.4375 Z M 9.375 -5.4375 "/></g></g></g><g fill="#4c4c4c" fill-opacity="1"><g transform="translate(262.865158, 281.741837)"><g><path d="M 6.046875 0.140625 C 5.015625 0.140625 4.171875 0.03125 3.515625 -0.1875 C 2.867188 -0.40625 2.367188 -0.695312 2.015625 -1.0625 C 1.660156 -1.4375 1.414062 -1.851562 1.28125 -2.3125 C 1.144531 -2.769531 1.078125 -3.238281 1.078125 -3.71875 L 1.15625 -8 L 2.640625 -8 L 2.640625 -3.71875 C 2.640625 -3.25 2.753906 -2.828125 2.984375 -2.453125 C 3.210938 -2.085938 3.578125 -1.800781 4.078125 -1.59375 C 4.578125 -1.394531 5.234375 -1.296875 6.046875 -1.296875 C 6.878906 -1.296875 7.546875 -1.394531 8.046875 -1.59375 C 8.546875 -1.789062 8.90625 -2.070312 9.125 -2.4375 C 9.34375 -2.800781 9.453125 -3.226562 9.453125 -3.71875 L 9.515625 -8 L 11 -8 L 11 -3.90625 C 11 -3.394531 10.9375 -2.898438 10.8125 -2.421875 C 10.6875 -1.941406 10.445312 -1.507812 10.09375 -1.125 C 9.75 -0.738281 9.25 -0.429688 8.59375 -0.203125 C 7.945312 0.0234375 7.097656 0.140625 6.046875 0.140625 Z M 6.046875 0.140625 "/></g></g></g></svg>